# xmcd
#
# Track frame offsets:
#	150
#	9783
#	34534
#	48596
#	62890
#	77966
#	98319
#	116140
#	127863
#	137632
#	151813
#
# Disc length: 2341 seconds
#
# Revision: 1
# Processed by: cddbd v1.5.2PL0 Copyright (c) Steve Scherf et al.
# Submitted via: audiograbber 1.83.01
#
DISCID=7d09230b
DTITLE=The Soul Surfers - Soul Rock!
DYEAR=2015
DGENRE=Funk
TTITLE0=Opening
TTITLE1=You can run (but you can't hide) from my love
TTITLE2=Astra
TTITLE3=Straight up
TTITLE4=T.S.S. groove
TTITLE5=Less talk more do
TTITLE6=Time is a gun
TTITLE7=Raw
TTITLE8=Stop fooling around
TTITLE9=Phoenix
TTITLE10=Soul power
EXTD=Ubiquity Recordings Inc\nURCD350
EXTT0=
EXTT1=
EXTT2=
EXTT3=
EXTT4=
EXTT5=
EXTT6=
EXTT7=
EXTT8=
EXTT9=
EXTT10=
PLAYORDER=
